# xmcd
#
# Track frame offsets:
#	150
#	20452
#	46803
#	76497
#	112947
#	138105
#	156984
#	177276
#	198836
#	217344
#	235450
#	253591
#	282461
#	309217
#
# Disc length: 4385 seconds
#
# Revision: 0
# Processed by: cddbd v1.5.1PL2 Copyright (c) Steve Scherf et al.
# Submitted via: dBpowerAMP V4.0
#
DISCID=bf111f0e
DTITLE=Ricardo Rodriguez - Sinceramente, Ricardo
DYEAR=1900
DGENRE=
TTITLE0=Vuelve
TTITLE1=Espera en mi
TTITLE2=Puedo inmaginarme
TTITLE3=Medley de Trio
TTITLE4=Quizas Hoy
TTITLE5=El Rocio
TTITLE6=Vuelve
TTITLE7=Una Voz
TTITLE8=Sino a Ti
TTITLE9=Camino a Canaan
TTITLE10=Medley de Coros
TTITLE11=Alaba
TTITLE12=Espera en mi
TTITLE13=bonus
EXTD=
EXTT0=
EXTT1=
EXTT2=
EXTT3=
EXTT4=
EXTT5=
EXTT6=
EXTT7=
EXTT8=
EXTT9=
EXTT10=
EXTT11=
EXTT12=
EXTT13=
PLAYORDER=
